<svg width="14" height="3" viewBox="0 0 14 3" fill="none" xmlns="http://www.w3.org/2000/svg">
<path fill-rule="evenodd" clip-rule="evenodd" d="M7.11111 0.0556641C6.31377 0.0556641 5.66666 0.702775 5.66666 1.50011C5.66666 2.29744 6.31377 2.94455 7.11111 2.94455C7.90844 2.94455 8.55555 2.29744 8.55555 1.50011C8.55555 0.702775 7.90844 0.0556641 7.11111 0.0556641ZM12.1667 0.0556641C11.3693 0.0556641 10.7222 0.702775 10.7222 1.50011C10.7222 2.29744 11.3693 2.94455 12.1667 2.94455C12.964 2.94455 13.6111 2.29744 13.6111 1.50011C13.6111 0.702775 12.964 0.0556641 12.1667 0.0556641ZM0.611084 1.50022C0.611084 0.702884 1.2582 0.0557731 2.05553 0.0557731C2.85286 0.0557731 3.49997 0.702884 3.49997 1.50022C3.49997 2.29755 2.85286 2.94466 2.05553 2.94466C1.2582 2.94466 0.611084 2.29755 0.611084 1.50022Z" fill="black"/>
</svg>
