<svg width="24" height="20" viewBox="0 0 24 20" fill="none" xmlns="http://www.w3.org/2000/svg">
<path fill-rule="evenodd" clip-rule="evenodd" d="M1 4C0.45 4 0 4.45 0 5V9H0.01L0 18C0 19.1 0.9 20 2 20H19C19.55 20 20 19.55 20 19C20 18.45 19.55 18 19 18H3C2.45 18 2 17.55 2 17V5C2 4.45 1.55 4 1 4ZM22 2H14L12.59 0.59C12.21 0.21 11.7 0 11.17 0H6C4.9 0 4.01 0.9 4.01 2L4 14C4 15.1 4.9 16 6 16H22C23.1 16 24 15.1 24 14V4C24 2.9 23.1 2 22 2ZM7.6 12.2L11.11 7.52C11.31 7.26 11.7 7.25 11.91 7.51L15.01 11.5L17.11 8.97C17.31 8.72 17.69 8.73 17.89 8.98L20.38 12.18C20.64 12.51 20.4 12.99 19.99 12.99H8C7.59 13 7.35 12.53 7.6 12.2Z" fill="#33BFFF"/>
</svg>
